<?xml version="1.0" encoding="utf-8"?>
<!-- Generator: Adobe Illustrator 26.5.0, SVG Export Plug-In . SVG Version: 6.00 Build 0)  -->
<svg version="1.1" id="Layer_2_00000168837279375671329030000011323577934054063024_"
	 xmlns="http://www.w3.org/2000/svg" xmlns:xlink="http://www.w3.org/1999/xlink" x="0px" y="0px" viewBox="0 0 1041.6 907.2"
	 style="enable-background:new 0 0 1041.6 907.2;" xml:space="preserve">
<style type="text/css">
	.st0{fill:#FFFFFF;}
	.st1{fill:#DAA250;}
	.st2{font-family:'TheGunsSmokeSt';}
	.st3{font-size:39px;}
	.st4{fill:#757575;}
	.st5{font-family:'GRAVEDIGGERPERSONALUSE';}
	.st6{font-size:165.6343px;}
</style>
<g id="Logo_4">
	<g id="Illustration">
		<path class="st0" d="M342.6,150.1c1.1-3,1.6-3.7,4.1-5.5c5-3.6,5.4-2.9,11.3-5.6c4.7-2.1,7.9-4,13.5-7.3c10-4.9,12.5-5.7,19.3-9.9
			c2.9-1.8,5.9-3.4,8.9-4.8c10.1-4.8,14.8-7.6,25.5-11.5c8.9-4.3,15-5.7,24.4-9.1c9.6-3.5,12.2-2.9,22.3-5.1c9.2-2,21.6-3,31.1-3.8
			c7.9-0.7,11.6-1.5,19.6-1.5c4.2,0,10.3,0.2,14.2,1.3c9.6,0.6,16.1,3.2,24.5-0.3c5.6-2.4,11.9-3.5,17.9-5c7.4-1.9,9.2-7.8,4-12.5
			c-5-4.5-11.1-8.6-14.4-14c-5.6-9-4.5-19.3-4.1-29.3c0.2-4.7,0.9-8.4,1.2-13.1c0.1-1.8,0-7.6,1.5-8c1.8-0.4,5.3,2.8,6.3,4.2
			c6.2,8.5,11.5,17.5,18,25.8c7.1,9,9.2,17.9,3.6,28c-0.8,1.5-1.2,3.1-1.5,4.7c-0.1,0.9,0,4.2,0.3,5.1c0.6-0.2,2-2.6,2.2-3
			c2.1-4.1,7.2-6.3,7.3-11.9c0.1-6,2.8-12.3,5.7-18.1c6.8-13.5,17-24.9,32.1-32.5C646,5,655,1.8,660,0c0.6-0.2-0.5,3-0.6,3.8
			c-0.8,3.6-2.5,7-3.5,10.6c-2.4,9.6-7.3,18.4-12.8,27.1c-5.5,8.7-11.5,16.9-23.1,20c-10.5,2.8-15.3,10.4-22.1,16.4l0,0
			c1-0.5,2.2-0.8,3.1-1.4c8.5-5.2,18.2-6.9,28.3-6.5c9.1,0.4,18.2,1.6,27.3,1.8c6,0.2,12-0.4,17.9-1.2c2.1-0.3,4.5-1.7,5.9-3.1
			c2.7-2.8,4.7-6,7.3-8.9c1.6-1.8,3.6-3.5,5.8-4.8c2.6-1.5,5.6-3.3,8.5-3.4c3.8-0.1,6.1,5.2,4.6,10.2c-0.4,1.3-3.4,3.2,0.3,4.5
			c2,0.7,3.8,2.2,4.5,4.1c1,2.7,0.1,5.7-3.4,7.1c-4.5,1.8-6,1.7-2.2,6.1c1.1,3.8-2.1,6.5-6.4,6c-6.8-0.8-11.2-4.3-14.9-8.9
			c-0.8-1.1-2.6-2.2-3.9-2.2c-8.8,0.1-17.5,0.9-26.3,0.8c-10.2-0.1-20.4-1.1-30.7-1.4c-2-0.1-7.6,0.2-9.6,0.7
			c-9.7,2.5-8.7,5.3-18.4,7.9c-0.5,0.1-8.2,1.1-8.6,1.4c0.5,0.2,1,0.4,1.6,0.4c5.2,0.5,10.6,0.2,15.4,1.6
			c14.8,4.4,29.3,9.5,43.9,14.4c14.8,5,29.4,10.5,44.4,15c7.2,2.1,13.9,6.7,22.7,4.2c6.9-1.9,14.1-2.9,21.1-4.5
			c0.5-0.1,1.4-1.3,1.2-1.7c-5.6-11.8-0.8-25.4,10.8-33.8c7.7-5.6,8.1-5.5,9.9,2.6c0,0.1,0,0.1,0,0.2c2.3,10.1,0.9,19.5-7.3,27.7
			c-0.4,0.4-1.4,1.6-1.6,2.1c0.6,0,2.4-0.4,2.8-0.6c10-4.4,19.9-3.4,29,1.2c4.4,2.2,8,5.5,11.8,8.5c1,0.7,1.6,1.8,2.3,2.7
			c0.1,0.2,0,0.4-0.2,0.5c-1.7,0.4-3.5,1-5.2,1c-3.4,0.1-6.9-0.4-10.3-0.4c-4,0.1-13.1,1.3-18.6,0.9c-8.3-0.5-13.8-0.2-22.4-5.6
			c-0.5-0.3-1.3-0.3-2-0.2c-6.2,1.3-12.4,2.6-18.6,4.1c-2.7,0.7-4.1,2.2-1.6,4.3c4,3.4,7.9,6.9,12.2,10.1c5.4,4,11.1,7.7,16.7,11.4
			c4,2.7,8,5.4,12.2,7.9c0.8,0.5,3-0.6,3.8-1.1c6.2-3.4,12.4-4,19.1-2.8c0,0,4.9,0.6,11.3,2.4c3.4,1,6.3,2.5,6.5,3.7
			c0.1,0.3,0.2,1.8-0.5,2.9c-1,1.4-1.5,2.3-2.8,3.3c-0.2,0.1-0.5,0.3-1.6,0.8c-1.4,0.6-2.9,0.9-4.3,1.1c-0.6,0.1-1.1,0.2-1.6,0.5
			c-0.8,0.5-0.7,1.7-0.6,2c0.5,1.2,1.1,1.9,2.3,3.1c1.8,2,2.1,2.6,2.1,2.6c1.4,1.5,0.5,3.3,0.2,4.2c-0.4,0.8-4,2.3-5.7,2.5
			c-3,0.3-4,0.3-9.5-0.5c-3-0.4-2.6,1-2.5,1.3c1.7,4.6,1.5,5.1,1.1,10c0,0.7-1.3,4.6-4.4,5.1c-1.6-0.3-2.7-0.1-5.2-2.1
			c-2.1-2.2-3.4-5-6.3-4.3c-1,0.2-1.8,0.8-2.5,1.6c-2,2.2-1.8,2.2-3.3,4.4c-1.5,2.1-1.9,2.6-3.6,4.5c-0.7,0.8-1.6,1.1-2.8,1.2
			c-0.5,0-2.2-1.3-2.5-3.8c-0.9-3.3-2-6.8-2.6-10.1c-0.8-3.9-1-5.1-0.9-9c0.1-2.7,1.9-5.8,2.8-8.5c0.4-1.2,0.5-2.6,0.3-3.9
			c-0.2-1.5-0.6-3.7-0.4-5.1c1.3-4.9-4.1-8.9-8.8-11.9c-10.9-6.9-21.2-14.1-28.6-24.1c-0.8-1-2.4-1.8-3.8-2.2
			c-8.1-2.3-16.3-4.4-24.5-6.5c-0.7-0.2-2.6-1.3-3.3-1.5c0.2,0.5,1.7,2.1,1.8,2.6c2,7.9,4.1,15.8,6,23.7c-1.2,2.3-11,1.5-7.5-2.8
			c0.2-0.3,0.6-2.6,0.5-3c-2-4.9-2.7-8.9-5.4-13.6c-2.4-4.3-5-9.3-9.4-11.8c-7.3-4.1-16-6.6-24.3-9.4c-8.9-3-17.7-6.6-27.1-8.3
			c-10.8-2-19.6-3.6-30.7-4.6c-0.5-0.1-5.9,0.2-6.4,0.3c0.5,0.3,3.2,2.2,3.8,2.5c6.8,3.3,13.8,6.5,20.6,9.8c1.8,0.9,3.5,1.9,5,3.1
			c4.3,3.2,6.2,4.8,10.5,7.9c2.5,1.8,4.9,5.4,7.7,6.8c3.9,1.9,6.9,2.3,11,4c1,0.4,7.3,3.3,8,4.2c1.5,1.9,2.7,2.3,3.3,4.4
			c0.5,1.8,0.2,4.9-1.3,5.9c-5.8,4-8.9,3.7-14.9-0.3c-1.3-0.9-2-1.9-3,0.7c-0.8,2-2.3,4.2-6.1,4.7c-1.3,0.4-5.1-1.4-5.4-2.7
			c-1.8-2.8-1.3-7,0.1-9.8c3.6-7.3,1.4-10.3-3.9-15c-7.6-6.8-17.3-10.8-27.5-14.3c-5.5-1.9-11.2-4.3-15.5-7.6c-3-2.3-7.6-2.2-10.6-2
			c-3.8,0.2-9,0-12.7-0.5c-7.9-1.1-13.7-2.4-23.7-1.9c-11.1,1.8-19.1,2.3-30.4,3.6c-2.5,0.3-6.2,0.6-8.8,1.1
			c-6.8,1.1-12.5,2.2-18.9,4.2c-12.5,3.8-15.4,3.7-27.3,8.6c-8.2,3.3-17.7,7.5-25.4,11.6c-11.3,6-17.3,9.2-28.6,15.2
			c-6.1,3.3-10.8,5.6-17,8.8c-3.8,1.9-7.9,4.1-11.7,6.1c-2.5,1.3-3.6,1.3-6.1,0.3"/>
		<path class="st0" d="M437.3,97.1c0.5-4.5,2.2-10.1,3.4-14.5c2.5-9.1,9.3-13.7,18-17.6c2-0.7,7.6-2.3,9-1.6c1.4,0.7-0.4,4-0.6,5.7
			c-0.6,4.1-1.9,8.2-3.1,12.3c-0.4,1.3-1.1,2.5-1.8,3.7c-3.5,4.5-6.3,6.5-8.5,8c-2,1.4-5.1,2.8-8.5,4.2c0,0-5,1.7-5,1.7
			C436.3,99.8,437.1,98.6,437.3,97.1L437.3,97.1z"/>
		<path class="st0" d="M426.7,127.9c-7.1-0.8-13.1-3.4-17.7-8.1c-0.5-0.5,0.8-2,2.4-2.9c3.8-1.8,6.1-2.3,9.6-2.4
			c9.9-0.2,16.3,3.6,23.4,8.7c1.2,0.9,4.8,3.2,5.2,4.6c0.1,0.3-5,0.4-5.9,0.4c-3.9,0-7.5,0.1-11.4-0.1"/>
	</g>
	<g id="Illustration-2">
		<path class="st0" d="M716.5,749.1c-1,3-1.5,3.8-4,5.6c-5,3.7-5.3,3-11.1,5.9c-4.6,2.3-7.8,4.2-13.3,7.7c-9.9,5.1-12.3,6-19.1,10.4
			c-2.8,1.8-5.8,3.5-8.8,5c-10,5-14.6,8-25.2,12.1c-8.8,4.6-14.8,6.1-24.2,9.8c-9.5,3.7-12.2,3.2-22.2,5.7c-9.2,2.3-21.5,3.5-31,4.6
			c-7.9,0.9-11.6,1.8-19.6,2c-4.2,0.1-10.3,0-14.2-1c-9.6-0.3-16.2-2.8-24.5,1c-5.5,2.5-11.8,3.8-17.8,5.5c-7.3,2-9,8-3.7,12.5
			c5.1,4.4,11.3,8.4,14.7,13.6c5.8,8.9,5,19.2,4.9,29.2c0,4.7-0.7,8.4-0.9,13.1c-0.1,1.8,0.2,7.6-1.3,8c-1.8,0.5-5.3-2.6-6.4-4
			c-6.4-8.3-11.9-17.2-18.7-25.4c-7.3-8.8-9.6-17.7-4.3-27.9c0.8-1.5,1.1-3.2,1.3-4.8c0.1-0.9-0.1-4.2-0.4-5.1
			c-0.6,0.2-1.9,2.7-2.1,3c-2,4.1-7,6.5-7,12.1c0,6-2.5,12.4-5.2,18.2c-6.4,13.6-16.3,25.3-31.2,33.3c-4.6,2.5-13.5,5.9-18.5,7.9
			c-0.6,0.2,0.4-3,0.5-3.8c0.7-3.6,2.4-7.1,3.2-10.7c2.2-9.7,6.8-18.6,12.1-27.4c5.3-8.9,11.1-17.2,22.6-20.6
			c10.4-3.1,15-10.8,21.7-17l0,0c-1,0.5-2.2,0.9-3.1,1.5c-8.4,5.5-18,7.4-28.1,7.2c-9.1-0.1-18.2-1.1-27.3-1.1c-6,0-12,0.7-17.9,1.6
			c-2.1,0.3-4.4,1.8-5.8,3.3c-2.6,2.8-4.5,6.1-7,9c-1.6,1.8-3.5,3.6-5.6,4.9c-2.6,1.5-5.5,3.5-8.4,3.6c-3.8,0.2-6.2-5-4.8-10.1
			c0.4-1.3,3.3-3.3-0.5-4.5c-2.1-0.7-3.9-2.1-4.6-4c-1.1-2.7-0.2-5.7,3.2-7.2c4.5-1.9,6-1.8,2.1-6.2c-1.2-3.7,1.9-6.6,6.2-6.2
			c6.8,0.7,11.3,4,15.1,8.5c0.9,1,2.6,2.2,4,2.1c8.8-0.3,17.5-1.3,26.3-1.4c10.2-0.1,20.4,0.5,30.7,0.6c2,0,7.6-0.4,9.6-0.9
			c9.7-2.7,8.6-5.5,18.2-8.3c0.5-0.2,8.1-1.3,8.6-1.7c-0.5-0.1-1-0.3-1.6-0.4c-5.2-0.4-10.6,0.1-15.4-1.2
			c-14.9-4.1-29.5-8.7-44.2-13.3c-14.9-4.6-29.6-9.8-44.8-13.8c-7.2-1.9-14.1-6.3-22.8-3.6c-6.8,2.1-14,3.3-21,5
			c-0.5,0.1-1.4,1.3-1.2,1.7c5.9,11.7,1.4,25.4-10,34.1c-7.5,5.8-7.9,5.7-10-2.3c0-0.1,0-0.1,0-0.2c-2.5-10-1.4-19.5,6.6-27.9
			c0.4-0.4,1.4-1.6,1.5-2.1c-0.6,0-2.4,0.5-2.8,0.7c-9.9,4.7-19.8,3.9-29.1-0.4c-4.4-2.1-8.1-5.3-12-8.2c-1-0.7-1.6-1.7-2.4-2.6
			c-0.1-0.2-0.1-0.5,0.2-0.5c1.7-0.5,3.4-1.1,5.2-1.2c3.4-0.2,6.9,0.3,10.3,0.1c4-0.2,13.1-1.6,18.5-1.3c8.4,0.3,13.8-0.1,22.5,5
			c0.5,0.3,1.4,0.3,2,0.1c6.2-1.5,12.4-2.9,18.5-4.6c2.6-0.7,4-2.3,1.5-4.4c-4.1-3.3-8.1-6.7-12.4-9.8c-5.5-3.8-11.2-7.4-17-11
			c-4.1-2.6-8.2-5.2-12.4-7.6c-0.8-0.5-3,0.7-3.7,1.2c-6.1,3.5-12.3,4.3-19,3.3c0,0-5-0.4-11.4-2.2c-3.5-0.9-6.4-2.4-6.6-3.5
			c-0.1-0.3-0.3-1.8,0.5-2.9c0.9-1.4,1.4-2.3,2.7-3.4c0.2-0.2,0.5-0.3,1.6-0.8c1.4-0.6,2.8-1,4.3-1.2c0.6-0.1,1.1-0.2,1.6-0.5
			c0.8-0.5,0.7-1.7,0.6-2c-0.5-1.2-1.1-1.8-2.4-3c-1.9-1.9-2.2-2.6-2.2-2.6c-1.4-1.5-0.6-3.3-0.3-4.2c0.3-0.8,4-2.4,5.7-2.6
			c3-0.4,4-0.4,9.5,0.3c3,0.3,2.6-1,2.5-1.3c-1.8-4.6-1.6-5.1-1.3-9.9c-0.1-0.7,1.2-4.6,4.3-5.3c1.6,0.3,2.7,0.1,5.3,2
			c2.1,2.2,3.5,4.9,6.4,4.1c1-0.2,1.8-0.9,2.4-1.6c2-2.3,1.7-2.2,3.2-4.4c1.4-2.1,1.9-2.6,3.5-4.6c0.7-0.8,1.6-1.1,2.8-1.3
			c0.5,0,2.2,1.2,2.6,3.7c1,3.3,2.1,6.7,2.9,10.1c0.9,3.9,1.1,5.1,1.1,9c0,2.7-1.7,5.8-2.6,8.5c-0.4,1.2-0.4,2.6-0.2,3.9
			c0.2,1.5,0.7,3.7,0.5,5c-1.1,4.9,4.3,8.8,9.1,11.7c11.1,6.6,21.6,13.6,29.2,23.3c0.8,1,2.5,1.7,3.9,2.1c8.2,2,16.4,4,24.6,5.9
			c0.7,0.2,2.7,1.3,3.3,1.4c-0.2-0.5-1.7-2.1-1.9-2.6c-2.2-7.8-4.5-15.7-6.6-23.6c1.1-2.3,11-1.8,7.6,2.6c-0.2,0.3-0.5,2.7-0.4,3
			c2.2,4.9,2.9,8.8,5.7,13.4c2.5,4.2,5.3,9.2,9.7,11.5c7.4,3.9,16.2,6.1,24.5,8.8c9,2.8,17.9,6.2,27.3,7.6
			c10.8,1.7,19.7,3.1,30.8,3.8c0.5,0,5.9-0.3,6.4-0.4c-0.5-0.3-3.3-2.2-3.8-2.4c-6.9-3.1-13.9-6.2-20.8-9.3
			c-1.8-0.8-3.5-1.8-5.1-2.9c-4.4-3-6.3-4.6-10.7-7.7c-2.5-1.8-5.1-5.3-7.9-6.6c-4-1.8-7-2.1-11.1-3.7c-1-0.4-7.4-3.1-8.1-4
			c-1.5-1.8-2.8-2.2-3.5-4.3c-0.6-1.8-0.3-4.9,1.1-5.9c5.7-4.2,8.8-3.9,14.9-0.1c1.3,0.8,2.1,1.8,3-0.8c0.8-2,2.1-4.2,5.9-4.8
			c1.3-0.5,5.1,1.3,5.4,2.5c1.9,2.7,1.5,6.9,0.1,9.8c-3.4,7.3-1.1,10.3,4.3,14.9c7.8,6.6,17.6,10.4,27.9,13.6
			c5.6,1.8,11.3,4,15.7,7.2c3,2.2,7.6,2,10.6,1.8c3.8-0.3,9-0.2,12.7,0.2c8,0.9,13.8,2.1,23.7,1.4c11.1-2.1,19-2.8,30.3-4.3
			c2.5-0.3,6.2-0.8,8.7-1.3c6.7-1.3,12.5-2.5,18.8-4.6c12.3-4.1,15.3-4.1,27.1-9.3c8.1-3.5,17.5-7.9,25.1-12.2
			c11.1-6.3,17.1-9.7,28.2-15.9c6.1-3.4,10.7-5.9,16.8-9.2c3.8-2,7.8-4.3,11.5-6.4c2.5-1.4,3.6-1.4,6.1-0.5"/>
		<path class="st0" d="M623.2,804.5c-0.4,4.5-2,10.2-3,14.6c-2.2,9.1-8.9,13.9-17.6,18c-2,0.7-7.5,2.5-8.9,1.8
			c-1.5-0.7,0.3-4,0.5-5.7c0.5-4.2,1.7-8.2,2.8-12.3c0.3-1.3,1.1-2.5,1.7-3.8c3.4-4.6,6.2-6.7,8.3-8.2c2-1.5,5-2.9,8.4-4.5
			c0,0,4.9-1.8,5-1.8C624.1,801.7,623.3,802.9,623.2,804.5L623.2,804.5z"/>
		<path class="st0" d="M633,773.4c7.2,0.6,13.2,3.1,17.8,7.6c0.5,0.5-0.8,2-2.3,2.9c-3.8,1.9-6,2.5-9.5,2.7
			c-9.8,0.4-16.4-3.2-23.6-8.1c-1.2-0.8-4.8-3-5.3-4.5c-0.1-0.3,5-0.5,5.8-0.5c3.9-0.1,7.5-0.3,11.3-0.2"/>
	</g>
	<text transform="matrix(0.8957 -1.0366 0.7567 0.6538 854.1501 682.2593)" class="st1 st2 st3">t</text>
	<text transform="matrix(0.7391 -1.1535 0.842 0.5395 883.4001 646.7496)" class="st1 st2 st3">a</text>
	<text transform="matrix(0.5688 -1.2463 0.9097 0.4152 907.8103 606.4897)" class="st1 st2 st3">t</text>
	<text transform="matrix(0.3925 -1.3126 0.9581 0.2865 925.8807 564.3099)" class="st1 st2 st3">t</text>
	<text transform="matrix(0.2046 -1.3546 0.9888 0.1494 938.0096 519.9687)" class="st1 st2 st3">o</text>
	<text transform="matrix(1.028165e-02 -1.37 1 7.504851e-03 943.8295 473.9111)" class="st1 st2 st3">o</text>
	<text transform="matrix(-0.3035 -1.336 0.9751 -0.2215 939.4401 399.5882)" class="st1 st2 st3">s</text>
	<text transform="matrix(-0.4977 -1.2764 0.9317 -0.3633 927.52 352.3603)" class="st1 st2 st3">h</text>
	<text transform="matrix(-0.6765 -1.1913 0.8696 -0.4938 908.5202 307.0599)" class="st1 st2 st3">o</text>
	<text transform="matrix(-0.8382 -1.0837 0.791 -0.6118 884.6702 267.2612)" class="st1 st2 st3">p</text>
	<text transform="matrix(-0.958 0.9793 -0.7148 -0.6993 211.1603 197.5509)" class="st1 st2 st3">t</text>
	<text transform="matrix(-0.8089 1.1057 -0.8071 -0.5905 179.7796 231.1808)" class="st1 st2 st3">a</text>
	<text transform="matrix(-0.6449 1.2087 -0.8823 -0.4707 152.9282 269.86)" class="st1 st2 st3">t</text>
	<text transform="matrix(-0.4726 1.2859 -0.9386 -0.345 132.2703 310.8707)" class="st1 st2 st3">t</text>
	<text transform="matrix(-0.2879 1.3394 -0.9777 -0.2101 117.4392 354.3506)" class="st1 st2 st3">o</text>
	<text transform="matrix(-9.461222e-02 1.3667 -0.9976 -6.906001e-02 108.7808 400.0007)" class="st1 st2 st3">o</text>
	<text transform="matrix(0.2205 1.3521 -0.987 0.1609 108.5797 474.4108)" class="st1 st2 st3">s</text>
	<text transform="matrix(0.4179 1.3047 -0.9523 0.305 117.5601 522.2902)" class="st1 st2 st3">h</text>
	<text transform="matrix(0.6016 1.2308 -0.8984 0.4392 133.7201 568.6703)" class="st1 st2 st3">o</text>
	<text transform="matrix(0.7697 1.1334 -0.8273 0.5618 155.0806 609.8809)" class="st1 st2 st3">p</text>
	<text transform="matrix(0.9464 -2.312396e-03 0.1679 0.9858 210.4701 443.4105)" class="st4 st5 st6">Legacy </text>
	<text transform="matrix(0.9464 -2.312396e-03 0.1679 0.9858 444.647 638.8584)" class="st4 st5 st6">Ink</text>
	<text transform="matrix(0.9464 -2.312396e-03 0.1679 0.9858 207.4702 443.4101)" class="st1 st5 st6">Legacy </text>
	<text transform="matrix(0.9464 -2.312396e-03 0.1679 0.9858 441.6469 638.859)" class="st1 st5 st6">Ink</text>
</g>
</svg>
