<?xml version="1.0" encoding="UTF-8"?><svg id="Layer_2" xmlns="http://www.w3.org/2000/svg" viewBox="0 0 852.27 907.2"><defs><style>.cls-1{fill:#fff;}</style></defs><g id="Layer_2-2"><g id="Logo_4"><g id="Illustration"><path class="cls-1" d="M243.12,150.12c1.07-3.01,1.61-3.74,4.1-5.52,5.05-3.62,5.38-2.88,11.26-5.58,4.67-2.15,7.86-4.01,13.47-7.32,10-4.86,12.47-5.68,19.31-9.9,2.87-1.77,5.85-3.39,8.9-4.83,10.1-4.76,14.83-7.64,25.45-11.46,8.93-4.35,14.96-5.71,24.4-9.13,9.56-3.46,12.24-2.91,22.3-5.14,9.25-2.04,21.62-2.97,31.11-3.81,7.94-.7,11.6-1.54,19.62-1.5,4.22,.02,10.34,.24,14.15,1.32,9.62,.56,16.08,3.23,24.5-.35,5.57-2.37,11.89-3.48,17.93-5.01,7.37-1.86,9.24-7.8,4.03-12.46-5.04-4.5-11.09-8.64-14.39-13.98-5.57-9-4.49-19.31-4.14-29.32,.17-4.71,.92-8.41,1.23-13.1,.12-1.8,0-7.62,1.47-7.96,1.76-.41,5.28,2.77,6.31,4.18,6.22,8.5,11.47,17.55,18.02,25.85,7.07,8.97,9.17,17.94,3.61,28.02-.81,1.47-1.22,3.14-1.45,4.75-.13,.9-.01,4.18,.27,5.12,.58-.22,1.99-2.63,2.18-2.99,2.12-4.05,7.19-6.29,7.29-11.93,.11-6.04,2.81-12.35,5.69-18.08,6.77-13.47,16.95-24.85,32.07-32.55,4.69-2.39,13.64-5.59,18.66-7.43,.63-.23-.46,3.04-.62,3.76-.8,3.58-2.55,7-3.45,10.57-2.44,9.65-7.3,18.4-12.78,27.1-5.51,8.73-11.52,16.94-23.14,20.05-10.5,2.81-15.3,10.42-22.08,16.42l-.03-.02c1.05-.46,2.18-.81,3.12-1.39,8.51-5.24,18.17-6.94,28.32-6.53,9.12,.37,18.18,1.56,27.3,1.82,5.95,.17,12-.43,17.92-1.18,2.13-.27,4.49-1.66,5.92-3.11,2.72-2.75,4.69-6.01,7.27-8.87,1.62-1.79,3.57-3.51,5.77-4.77,2.6-1.49,5.6-3.33,8.46-3.4,3.77-.1,6.11,5.2,4.56,10.19-.4,1.28-3.37,3.18,.34,4.47,2.04,.71,3.8,2.15,4.54,4.11,1.04,2.73,.1,5.69-3.37,7.09-4.54,1.82-6.02,1.68-2.25,6.1,1.07,3.76-2.06,6.52-6.38,5.99-6.8-.84-11.21-4.31-14.88-8.87-.85-1.05-2.59-2.25-3.93-2.23-8.77,.11-17.54,.88-26.29,.77-10.23-.13-20.42-1.05-30.65-1.39-1.97-.07-7.61,.18-9.62,.7-9.74,2.5-8.72,5.33-18.44,7.86-.55,.14-8.15,1.09-8.63,1.44,.52,.15,1.04,.38,1.58,.43,5.15,.5,10.64,.17,15.38,1.59,14.78,4.44,29.3,9.48,43.88,14.39,14.81,4.99,29.39,10.52,44.43,14.96,7.19,2.12,13.9,6.68,22.71,4.21,6.87-1.93,14.08-2.94,21.1-4.47,.55-.12,1.38-1.28,1.21-1.65-5.64-11.8-.75-25.43,10.85-33.85,7.69-5.59,8.06-5.5,9.89,2.57,.02,.07,.03,.14,.05,.21,2.26,10.08,.91,19.5-7.31,27.73-.36,.36-1.42,1.6-1.6,2.08,.61,.02,2.37-.42,2.85-.63,10.03-4.4,19.86-3.42,29.04,1.15,4.39,2.18,7.96,5.54,11.78,8.48,.95,.73,1.58,1.76,2.31,2.7,.14,.18,.05,.45-.18,.5-1.73,.41-3.46,1-5.19,1.04-3.43,.07-6.88-.45-10.31-.37-4.03,.1-13.14,1.29-18.58,.88-8.34-.53-13.76-.23-22.41-5.57-.46-.28-1.35-.3-1.96-.17-6.2,1.32-12.42,2.58-18.56,4.1-2.66,.66-4.07,2.19-1.56,4.33,4,3.41,7.88,6.94,12.15,10.1,5.38,3.99,11.06,7.68,16.67,11.44,4.01,2.7,8.05,5.38,12.22,7.9,.79,.48,2.98-.64,3.76-1.07,6.17-3.37,12.37-4.04,19.13-2.84,0,0,4.94,.55,11.31,2.44,3.44,1.02,6.28,2.54,6.5,3.7,.06,.32,.22,1.75-.53,2.86-.96,1.42-1.49,2.26-2.83,3.34-.19,.15-.5,.31-1.58,.75-1.39,.56-2.86,.91-4.35,1.11-.56,.08-1.13,.21-1.58,.49-.84,.51-.74,1.69-.62,1.99,.45,1.17,1.07,1.85,2.35,3.08,1.84,1.96,2.11,2.62,2.11,2.62,1.4,1.54,.53,3.34,.16,4.21-.36,.83-4.01,2.34-5.73,2.46-3.01,.28-4.02,.28-9.54-.51-2.95-.43-2.62,.97-2.51,1.26,1.68,4.65,1.49,5.1,1.06,9.96,.05,.66-1.33,4.58-4.39,5.15-1.56-.34-2.68-.15-5.21-2.09-2.1-2.23-3.37-5-6.27-4.3-.96,.23-1.81,.82-2.48,1.55-2.04,2.22-1.76,2.21-3.3,4.35-1.47,2.05-1.92,2.57-3.64,4.47-.68,.75-1.6,1.09-2.78,1.19-.5,.04-2.21-1.31-2.55-3.76-.89-3.3-1.97-6.79-2.62-10.13-.75-3.89-1-5.12-.89-9.01,.08-2.66,1.86-5.79,2.78-8.48,.42-1.23,.46-2.63,.27-3.91-.22-1.46-.63-3.7-.4-5.05,1.27-4.9-4.1-8.93-8.78-11.9-10.89-6.92-21.25-14.15-28.6-24.06-.76-1.02-2.4-1.78-3.83-2.18-8.13-2.26-16.32-4.37-24.49-6.53-.66-.17-2.64-1.35-3.3-1.5,.17,.53,1.68,2.1,1.82,2.63,2.05,7.9,4.14,15.79,6.02,23.72-1.19,2.29-11.04,1.54-7.55-2.82,.21-.26,.61-2.65,.45-3.04-2.04-4.94-2.71-8.87-5.39-13.55-2.44-4.27-5.05-9.34-9.39-11.76-7.33-4.09-16.01-6.55-24.27-9.37-8.9-3.04-17.74-6.62-27.06-8.32-10.78-1.97-19.63-3.61-30.7-4.55-.53-.05-5.87,.17-6.42,.27,.47,.35,3.23,2.24,3.77,2.5,6.85,3.29,13.75,6.52,20.57,9.84,1.78,.87,3.45,1.93,5.01,3.06,4.34,3.15,6.21,4.77,10.52,7.95,2.46,1.82,4.94,5.4,7.73,6.75,3.94,1.91,6.89,2.27,10.98,3.98,1.04,.43,7.31,3.31,8,4.17,1.49,1.86,2.72,2.29,3.34,4.4,.54,1.81,.17,4.88-1.27,5.88-5.81,4.01-8.93,3.71-14.91-.27-1.31-.87-2.01-1.86-3.05,.68-.81,1.97-2.26,4.19-6.06,4.68-1.33,.41-5.07-1.43-5.36-2.67-1.82-2.77-1.27-6.97,.13-9.82,3.58-7.27,1.4-10.29-3.91-15.03-7.63-6.8-17.3-10.84-27.49-14.31-5.53-1.89-11.17-4.28-15.49-7.63-2.96-2.29-7.6-2.2-10.59-2.02-3.78,.22-9.03-.03-12.71-.52-7.94-1.06-13.69-2.45-23.67-1.95-11.15,1.85-19.12,2.32-30.41,3.58-2.5,.28-6.25,.64-8.75,1.05-6.77,1.11-12.52,2.2-18.91,4.15-12.45,3.8-15.38,3.68-27.31,8.57-8.16,3.35-17.69,7.46-25.4,11.57-11.26,6-17.34,9.22-28.61,15.2-6.14,3.26-10.83,5.6-17.05,8.76-3.82,1.94-7.9,4.07-11.69,6.06-2.49,1.31-3.63,1.33-6.15,.31"/><path class="cls-1" d="M337.78,97.12c.48-4.48,2.23-10.12,3.42-14.5,2.45-9.05,9.26-13.68,18.03-17.56,1.98-.68,7.58-2.29,8.99-1.6,1.43,.7-.39,4.03-.63,5.66-.6,4.13-1.92,8.21-3.09,12.28-.37,1.29-1.13,2.51-1.77,3.74-3.48,4.51-6.32,6.52-8.52,7.98-2.05,1.42-5.09,2.78-8.54,4.25-.05,.02-4.96,1.65-5.01,1.66-3.86,.79-3.06-.36-2.89-1.92h.01Z"/><path class="cls-1" d="M327.15,127.94c-7.13-.8-13.08-3.44-17.66-8.05-.5-.51,.83-1.98,2.37-2.86,3.84-1.76,6.08-2.35,9.58-2.41,9.85-.19,16.27,3.63,23.4,8.7,1.2,.86,4.76,3.16,5.16,4.6,.07,.26-5.01,.41-5.85,.4-3.87-.03-7.49,.08-11.35-.1"/></g><g id="Illustration-2"><path class="cls-1" d="M616.95,749.11c-.99,3.03-1.52,3.78-3.96,5.62-4.96,3.74-5.3,3.02-11.11,5.87-4.62,2.26-7.76,4.21-13.28,7.66-9.88,5.12-12.32,5.99-19.06,10.38-2.83,1.84-5.76,3.53-8.78,5.05-9.98,5.01-14.64,8.02-25.15,12.1-8.82,4.57-14.81,6.09-24.16,9.75-9.47,3.71-12.16,3.22-22.16,5.7-9.19,2.28-21.53,3.52-31,4.59-7.92,.9-11.56,1.83-19.57,2-4.22,.09-10.34,.02-14.18-.96-9.63-.31-16.16-2.82-24.48,.97-5.51,2.51-11.8,3.78-17.79,5.46-7.32,2.05-9.04,8.03-3.71,12.55,5.15,4.37,11.3,8.36,14.74,13.62,5.8,8.86,4.98,19.19,4.88,29.2-.05,4.71-.71,8.43-.9,13.13-.07,1.8,.19,7.61-1.27,7.99-1.75,.45-5.34-2.64-6.42-4.02-6.44-8.34-11.91-17.25-18.67-25.39-7.29-8.78-9.62-17.71-4.32-27.92,.77-1.49,1.14-3.17,1.33-4.79,.11-.9-.09-4.18-.4-5.11-.57,.24-1.92,2.68-2.1,3.05-2.01,4.1-7.03,6.47-6.99,12.11,.05,6.05-2.49,12.41-5.23,18.22-6.43,13.64-16.31,25.28-31.24,33.35-4.63,2.5-13.49,5.94-18.46,7.9-.63,.25,.38-3.05,.53-3.78,.71-3.59,2.37-7.07,3.19-10.65,2.2-9.71,6.83-18.58,12.09-27.41,5.29-8.87,11.09-17.23,22.63-20.63,10.42-3.07,15.03-10.8,21.66-16.98l.03,.02c-1.03,.48-2.16,.86-3.09,1.46-8.37,5.45-17.99,7.4-28.14,7.24-9.12-.14-18.21-1.1-27.34-1.13-5.95-.02-11.98,.74-17.89,1.64-2.12,.32-4.44,1.77-5.84,3.26-2.65,2.82-4.54,6.13-7.05,9.05-1.58,1.83-3.48,3.6-5.65,4.91-2.56,1.55-5.52,3.47-8.37,3.61-3.77,.19-6.24-5.04-4.82-10.08,.36-1.29,3.29-3.27-.45-4.46-2.06-.66-3.85-2.06-4.64-4-1.1-2.7-.24-5.69,3.19-7.17,4.49-1.94,5.98-1.83,2.1-6.15-1.16-3.73,1.89-6.57,6.23-6.15,6.82,.67,11.32,4.03,15.1,8.49,.87,1.03,2.65,2.18,3.98,2.13,8.76-.33,17.52-1.33,26.27-1.43,10.23-.13,20.44,.53,30.67,.61,1.97,.02,7.6-.38,9.6-.94,9.67-2.74,8.58-5.55,18.24-8.33,.55-.16,8.12-1.29,8.59-1.66-.53-.13-1.05-.35-1.59-.39-5.16-.37-10.64,.1-15.42-1.2-14.89-4.06-29.53-8.74-44.23-13.27-14.94-4.61-29.64-9.78-44.8-13.83-7.24-1.94-14.06-6.32-22.81-3.63-6.82,2.1-14,3.29-20.98,5-.55,.13-1.35,1.32-1.16,1.68,5.93,11.65,1.39,25.4-9.99,34.11-7.55,5.78-7.92,5.7-9.95-2.32-.02-.07-.03-.14-.05-.21-2.51-10.02-1.4-19.47,6.61-27.9,.35-.36,1.38-1.63,1.55-2.12-.61,0-2.36,.48-2.83,.7-9.92,4.65-19.76,3.92-29.06-.42-4.44-2.07-8.09-5.34-11.99-8.18-.97-.71-1.63-1.71-2.37-2.64-.15-.18-.06-.45,.17-.51,1.72-.45,3.43-1.09,5.16-1.17,3.43-.16,6.88,.28,10.31,.11,4.03-.2,13.1-1.63,18.55-1.35,8.35,.32,13.76-.11,22.54,5,.47,.27,1.35,.26,1.96,.12,6.17-1.47,12.35-2.89,18.45-4.57,2.64-.73,4.01-2.3,1.45-4.37-4.08-3.31-8.06-6.74-12.4-9.79-5.48-3.85-11.25-7.4-16.95-11.02-4.08-2.6-8.19-5.17-12.42-7.59-.8-.46-2.96,.72-3.73,1.16-6.08,3.52-12.26,4.35-19.05,3.32,0,0-4.95-.42-11.37-2.15-3.46-.93-6.35-2.38-6.59-3.53-.07-.32-.27-1.75,.46-2.88,.92-1.44,1.43-2.3,2.74-3.41,.19-.16,.49-.32,1.56-.79,1.38-.6,2.84-.98,4.32-1.22,.56-.09,1.12-.24,1.57-.53,.83-.53,.7-1.7,.57-2-.48-1.16-1.11-1.82-2.42-3.02-1.89-1.91-2.18-2.57-2.18-2.57-1.43-1.5-.62-3.33-.26-4.2,.34-.84,3.95-2.44,5.66-2.6,3-.36,4.01-.39,9.55,.27,2.96,.35,2.59-1.04,2.48-1.33-1.79-4.61-1.62-5.06-1.32-9.93-.07-.66,1.22-4.61,4.26-5.26,1.57,.3,2.69,.08,5.26,1.95,2.15,2.17,3.5,4.91,6.38,4.14,.96-.25,1.79-.87,2.44-1.61,1.99-2.27,1.71-2.25,3.19-4.43,1.42-2.09,1.85-2.62,3.52-4.56,.66-.77,1.57-1.13,2.75-1.26,.5-.05,2.24,1.25,2.64,3.7,.97,3.28,2.14,6.73,2.88,10.06,.85,3.87,1.13,5.09,1.11,8.99,0,2.66-1.71,5.84-2.57,8.55-.39,1.24-.4,2.64-.18,3.91,.25,1.45,.72,3.68,.53,5.03-1.14,4.93,4.33,8.82,9.08,11.67,11.06,6.64,21.61,13.61,29.2,23.33,.78,1,2.45,1.72,3.89,2.08,8.18,2.05,16.42,3.96,24.65,5.9,.66,.16,2.67,1.28,3.34,1.42-.19-.52-1.73-2.06-1.89-2.59-2.25-7.84-4.53-15.68-6.61-23.56,1.13-2.32,11-1.82,7.62,2.63-.2,.27-.54,2.67-.37,3.05,2.16,4.89,2.94,8.79,5.73,13.41,2.55,4.21,5.28,9.2,9.68,11.52,7.43,3.91,16.17,6.14,24.5,8.76,8.98,2.82,17.91,6.17,27.26,7.64,10.83,1.7,19.72,3.11,30.8,3.77,.53,.03,5.86-.32,6.41-.43-.48-.34-3.29-2.16-3.83-2.4-6.93-3.11-13.91-6.17-20.82-9.32-1.8-.82-3.5-1.84-5.09-2.93-4.42-3.04-6.33-4.61-10.72-7.68-2.51-1.75-5.07-5.28-7.9-6.56-3.99-1.81-6.95-2.1-11.08-3.7-1.05-.41-7.39-3.13-8.1-3.97-1.54-1.82-2.77-2.23-3.45-4.31-.58-1.79-.29-4.88,1.12-5.91,5.71-4.16,8.83-3.93,14.91-.11,1.33,.84,2.06,1.81,3.03-.75,.76-1.99,2.15-4.25,5.94-4.83,1.32-.45,5.1,1.3,5.42,2.54,1.89,2.72,1.45,6.94,.12,9.83-3.39,7.35-1.14,10.33,4.29,14.93,7.8,6.61,17.57,10.4,27.85,13.61,5.58,1.75,11.28,4,15.68,7.23,3.02,2.22,7.65,2,10.63,1.75,3.77-.32,9.02-.2,12.72,.2,7.96,.86,13.75,2.1,23.71,1.36,11.1-2.13,19.05-2.8,30.31-4.35,2.49-.34,6.23-.8,8.72-1.27,6.74-1.28,12.46-2.52,18.8-4.63,12.35-4.12,15.28-4.06,27.08-9.26,8.07-3.55,17.5-7.9,25.1-12.21,11.1-6.29,17.1-9.65,28.22-15.92,6.06-3.41,10.68-5.87,16.82-9.19,3.77-2.04,7.8-4.26,11.53-6.36,2.46-1.38,3.59-1.42,6.14-.47"/><path class="cls-1" d="M523.66,804.49c-.37,4.49-1.98,10.18-3.05,14.58-2.22,9.11-8.91,13.9-17.58,18.01-1.96,.73-7.52,2.48-8.94,1.83-1.45-.66,.29-4.03,.48-5.68,.49-4.15,1.71-8.25,2.77-12.35,.34-1.3,1.07-2.54,1.68-3.78,3.36-4.6,6.15-6.68,8.31-8.2,2.02-1.47,5.02-2.91,8.43-4.47,.04-.02,4.91-1.78,4.96-1.79,3.84-.89,3.06,.28,2.94,1.85h0Z"/><path class="cls-1" d="M533.5,773.41c7.15,.62,13.17,3.11,17.85,7.6,.52,.49-.78,2-2.29,2.92-3.79,1.86-6.02,2.5-9.52,2.66-9.84,.44-16.36-3.21-23.61-8.11-1.22-.83-4.84-3.04-5.28-4.47-.08-.26,5-.54,5.84-.55,3.87-.07,7.48-.27,11.35-.18"/></g></g></g></svg>